<svg width="1360" height="513" viewBox="0 0 1360 513" fill="none" xmlns="http://www.w3.org/2000/svg">
<path opacity="0.8" fill-rule="evenodd" clip-rule="evenodd" d="M1342.91 457C1254.8 238.647 991.708 80 680.5 80C369.292 80 106.203 238.647 18.0865 457H17C105.146 237.98 368.867 79 680.5 79C992.133 79 1255.85 237.98 1344 457H1342.91Z" fill="url(#paint0_linear_3411_27545)"/>
<path opacity="0.8" fill-rule="evenodd" clip-rule="evenodd" d="M1358.98 513C1313.97 236.458 1027.29 23 680 23C332.713 23 46.0304 236.458 1.01515 513H0C45.016 235.779 332.306 22 680 22C1027.69 22 1314.98 235.779 1360 513H1358.98Z" fill="url(#paint1_linear_3411_27545)"/>
<g filter="url(#filter0_f_3411_27545)">
<path d="M945.5 2L945.813 10.324C946.004 15.4166 950.148 19.5007 955.312 19.6869L964 20L955.312 20.3131C950.148 20.4993 946.004 24.5834 945.813 29.676L945.5 38L945.187 29.676C944.996 24.5834 940.852 20.4993 935.688 20.3131L927 20L935.688 19.6869C940.852 19.5007 944.996 15.4166 945.187 10.324L945.5 2Z" fill="#F9F2EA"/>
</g>
<g filter="url(#filter1_f_3411_27545)">
<path d="M459.444 22L459.587 25.6996C459.675 27.9629 461.566 29.7781 463.923 29.8608L467.889 30L463.923 30.1392C461.566 30.2219 459.675 32.0371 459.587 34.3004L459.444 38L459.302 34.3004C459.214 32.0371 457.323 30.2219 454.966 30.1392L451 30L454.966 29.8608C457.323 29.7781 459.214 27.9629 459.302 25.6996L459.444 22Z" fill="#F9F2EA"/>
</g>
<g filter="url(#filter2_f_3411_27545)">
<path d="M926.389 287L926.514 290.237C926.59 292.218 928.245 293.806 930.308 293.878L933.778 294L930.308 294.122C928.245 294.194 926.59 295.782 926.514 297.763L926.389 301L926.264 297.763C926.187 295.782 924.532 294.194 922.47 294.122L919 294L922.47 293.878C924.532 293.806 926.187 292.218 926.264 290.237L926.389 287Z" fill="#F9F2EA"/>
</g>
<g filter="url(#filter3_f_3411_27545)">
<circle opacity="0.5" cx="1143.5" cy="216.5" r="7.5" fill="#F9F2EA"/>
<circle opacity="0.5" cx="1143.5" cy="216.5" r="12.25" stroke="#F9F2EA" stroke-width="0.5"/>
</g>
<g filter="url(#filter4_f_3411_27545)">
<circle opacity="0.5" cx="252" cy="147" r="4.8" fill="#F9F2EA"/>
<circle opacity="0.5" cx="252" cy="147" r="7.75" stroke="#F9F2EA" stroke-width="0.5"/>
</g>
<defs>
<filter id="filter0_f_3411_27545" x="925" y="0" width="41" height="40" filterUnits="userSpaceOnUse" color-interpolation-filters="sRGB">
<feFlood flood-opacity="0" result="BackgroundImageFix"/>
<feBlend mode="normal" in="SourceGraphic" in2="BackgroundImageFix" result="shape"/>
<feGaussianBlur stdDeviation="1" result="effect1_foregroundBlur_3411_27545"/>
</filter>
<filter id="filter1_f_3411_27545" x="449" y="20" width="20.8889" height="20" filterUnits="userSpaceOnUse" color-interpolation-filters="sRGB">
<feFlood flood-opacity="0" result="BackgroundImageFix"/>
<feBlend mode="normal" in="SourceGraphic" in2="BackgroundImageFix" result="shape"/>
<feGaussianBlur stdDeviation="1" result="effect1_foregroundBlur_3411_27545"/>
</filter>
<filter id="filter2_f_3411_27545" x="917" y="285" width="18.7778" height="18" filterUnits="userSpaceOnUse" color-interpolation-filters="sRGB">
<feFlood flood-opacity="0" result="BackgroundImageFix"/>
<feBlend mode="normal" in="SourceGraphic" in2="BackgroundImageFix" result="shape"/>
<feGaussianBlur stdDeviation="1" result="effect1_foregroundBlur_3411_27545"/>
</filter>
<filter id="filter3_f_3411_27545" x="1128" y="201" width="31" height="31" filterUnits="userSpaceOnUse" color-interpolation-filters="sRGB">
<feFlood flood-opacity="0" result="BackgroundImageFix"/>
<feBlend mode="normal" in="SourceGraphic" in2="BackgroundImageFix" result="shape"/>
<feGaussianBlur stdDeviation="1.5" result="effect1_foregroundBlur_3411_27545"/>
</filter>
<filter id="filter4_f_3411_27545" x="241" y="136" width="22" height="22" filterUnits="userSpaceOnUse" color-interpolation-filters="sRGB">
<feFlood flood-opacity="0" result="BackgroundImageFix"/>
<feBlend mode="normal" in="SourceGraphic" in2="BackgroundImageFix" result="shape"/>
<feGaussianBlur stdDeviation="1.5" result="effect1_foregroundBlur_3411_27545"/>
</filter>
<linearGradient id="paint0_linear_3411_27545" x1="680.5" y1="823" x2="680.5" y2="90" gradientUnits="userSpaceOnUse">
<stop offset="0.0271554" stop-color="#F9F2EA"/>
<stop offset="1" stop-color="#F9F2EA" stop-opacity="0.05"/>
</linearGradient>
<linearGradient id="paint1_linear_3411_27545" x1="680" y1="880.5" x2="680" y2="-8.99998" gradientUnits="userSpaceOnUse">
<stop offset="0.0271554" stop-color="#F9F2EA"/>
<stop offset="1" stop-color="#F9F2EA" stop-opacity="0.05"/>
</linearGradient>
</defs>
</svg>
