<svg width="33" height="33" viewBox="0 0 33 33" fill="none" xmlns="http://www.w3.org/2000/svg">
<path d="M31.0049 16.0028C31.0075 24.2883 24.2929 31.0049 16.0074 31.0049C7.72169 31.0049 1.00259 24.2879 1 16.0021C0.997416 7.71663 7.71195 1 15.9974 1C24.2832 1 31.0023 7.71701 31.0049 16.0028Z" stroke="#959595" stroke-width="2"/>
<g style="mix-blend-mode:multiply">
<path d="M12.7699 12.6296C12.7699 13.8247 11.9192 14.7944 10.8754 14.7944C9.83148 14.7944 8.98083 13.8247 8.98083 12.6296C8.98083 11.4345 9.82958 10.4648 10.8754 10.4648C11.9211 10.4648 12.7699 11.4345 12.7699 12.6296Z" fill="#959595"/>
<path d="M23.0306 12.6296C23.0306 13.8247 22.18 14.7944 21.1361 14.7944C20.0922 14.7944 19.2416 13.8247 19.2416 12.6296C19.2416 11.4345 20.0922 10.4648 21.1361 10.4648C22.18 10.4648 23.0306 11.4345 23.0306 12.6296Z" fill="#959595"/>
</g>
<g style="mix-blend-mode:multiply">
<path d="M12.122 9.6867C11.3075 9.15403 10.3396 8.90565 9.36921 8.98026C9.20531 8.99923 9.03992 8.96042 8.90157 8.87053C8.76323 8.78063 8.6606 8.64529 8.6114 8.48784C8.52994 8.16776 8.82549 7.81928 9.2707 7.78519C10.5049 7.68995 11.7358 8.00559 12.7718 8.68291C13.1507 8.92723 13.2359 9.37609 13.0105 9.61662C12.893 9.72854 12.7405 9.7966 12.5787 9.80936C12.4169 9.82212 12.2556 9.77881 12.122 9.6867Z" fill="#959595"/>
</g>
<g style="mix-blend-mode:multiply">
<path d="M19.8895 9.68674C20.7036 9.15488 21.6706 8.90655 22.6403 8.98031C22.8043 8.99965 22.9698 8.961 23.1083 8.87105C23.2467 8.7811 23.3492 8.64553 23.3981 8.48788C23.4796 8.16781 23.1859 7.81933 22.7388 7.78523C21.5053 7.68984 20.2748 8.00552 19.2396 8.68296C18.8607 8.92728 18.7736 9.37614 18.999 9.61667C19.1167 9.72906 19.2695 9.79741 19.4318 9.81017C19.594 9.82294 19.7557 9.77934 19.8895 9.68674Z" fill="#959595"/>
</g>
<g style="mix-blend-mode:multiply">
<path d="M21.9735 23.9575C21.9781 24.0037 21.9697 24.0503 21.9492 24.0919C21.9286 24.1336 21.8968 24.1686 21.8573 24.1931C21.8179 24.2176 21.7723 24.2305 21.7259 24.2303C21.6794 24.2302 21.6339 24.217 21.5946 24.1924C20.492 23.4518 18.4345 22.7208 16.002 22.7586C13.5675 22.7208 11.5138 23.4518 10.4112 24.1924C10.3979 24.2021 10.3833 24.2098 10.3677 24.2151C10.3278 24.2321 10.2841 24.2383 10.241 24.233C10.198 24.2278 10.1571 24.2112 10.1225 24.1851C10.0879 24.1589 10.0608 24.1241 10.044 24.0842C10.0271 24.0442 10.0212 24.0005 10.0266 23.9575C10.0817 23.4176 10.1961 22.8853 10.3677 22.3704C11.7128 18.4651 16.002 18.6753 16.002 18.6753C16.002 18.6753 21.3786 18.414 21.9735 23.9575Z" fill="#959595"/>
</g>
</svg>
