<svg width="33" height="33" viewBox="0 0 33 33" fill="none" xmlns="http://www.w3.org/2000/svg">
<path d="M31.0049 16.0028C31.0075 24.2883 24.2929 31.0049 16.0074 31.0049C7.7217 31.0049 1.00259 24.2879 1 16.0021C0.997416 7.71663 7.71196 1 15.9975 1C24.2832 1 31.0023 7.71701 31.0049 16.0028Z" stroke="#959595" stroke-width="2"/>
<g style="mix-blend-mode:multiply">
<path d="M12.7705 12.1648C12.7705 13.3598 11.9199 14.3295 10.876 14.3295C9.83209 14.3295 8.98145 13.3598 8.98145 12.1648C8.98145 10.9697 9.83209 10 10.876 10C11.9199 10 12.7705 10.9697 12.7705 12.1648Z" fill="#959595"/>
<path d="M23.0312 12.1648C23.0312 13.3598 22.1806 14.3295 21.1367 14.3295C20.0928 14.3295 19.2422 13.3598 19.2422 12.1648C19.2422 10.9697 20.0928 10 21.1367 10C22.1806 10 23.0312 10.9697 23.0312 12.1648Z" fill="#959595"/>
</g>
<g style="mix-blend-mode:multiply">
<path d="M11.1676 8.38679C10.1951 8.39139 9.2516 8.71845 8.48499 9.31671C8.35805 9.42056 8.19907 9.47731 8.03504 9.47731C7.87101 9.47731 7.71203 9.42056 7.58509 9.31671C7.3407 9.09323 7.39564 8.64058 7.74612 8.36974C8.72064 7.60907 9.91989 7.19279 11.1563 7.18604C11.6053 7.18604 11.9273 7.50611 11.8724 7.83187C11.8367 7.99128 11.7471 8.13352 11.6187 8.2346C11.4903 8.33568 11.331 8.38943 11.1676 8.38679Z" fill="#959595"/>
</g>
<g style="mix-blend-mode:multiply">
<path d="M20.8468 8.38679C21.8192 8.39196 22.7625 8.71896 23.5294 9.31671C23.6561 9.42042 23.8147 9.47709 23.9784 9.47709C24.1421 9.47709 24.3008 9.42042 24.4274 9.31671C24.6718 9.09323 24.6169 8.64058 24.2664 8.36974C23.2919 7.60907 22.0926 7.19279 20.8563 7.18604C20.4091 7.18604 20.0871 7.50611 20.1401 7.83187C20.1759 7.99161 20.2658 8.13409 20.3945 8.2352C20.5233 8.33632 20.6831 8.38987 20.8468 8.38679Z" fill="#959595"/>
</g>
<g style="mix-blend-mode:multiply">
<path d="M10.0309 19.536C10.0263 19.4898 10.0347 19.4433 10.0552 19.4016C10.0758 19.36 10.1076 19.3249 10.1471 19.3004C10.1865 19.276 10.2321 19.2631 10.2785 19.2632C10.325 19.2633 10.3705 19.2765 10.4098 19.3012C11.5124 20.0417 13.5699 20.7728 16.0024 20.733C18.4369 20.7728 20.4906 20.0417 21.5932 19.3012C21.6058 19.2915 21.6199 19.2838 21.6349 19.2785C21.6748 19.261 21.7187 19.2544 21.7621 19.2595C21.8054 19.2645 21.8466 19.281 21.8815 19.3072C21.9164 19.3334 21.9437 19.3684 21.9606 19.4086C21.9775 19.4488 21.9834 19.4928 21.9778 19.536C21.923 20.0762 21.808 20.6085 21.6349 21.1231C20.2916 25.0284 16.0024 24.8182 16.0024 24.8182C16.0024 24.8182 10.6258 25.0777 10.0309 19.536Z" fill="#959595"/>
</g>
</svg>
