<svg width="33" height="33" viewBox="0 0 33 33" fill="none" xmlns="http://www.w3.org/2000/svg">
<path d="M31.0049 16.0028C31.0075 24.2883 24.2929 31.0049 16.0074 31.0049C7.72169 31.0049 1.00259 24.2879 1 16.0021C0.997416 7.71663 7.71195 1 15.9974 1C24.2832 1 31.0023 7.71701 31.0049 16.0028Z" stroke="#959595" stroke-width="2"/>
<g style="mix-blend-mode:multiply">
<path d="M12.771 13.0207C12.771 14.2158 11.9203 15.1855 10.8765 15.1855C9.83257 15.1855 8.98193 14.2158 8.98193 13.0207C8.98193 11.8257 9.83068 10.856 10.8765 10.856C11.9222 10.856 12.771 11.8257 12.771 13.0207Z" fill="#959595"/>
<path d="M23.0317 13.0207C23.0317 14.2158 22.1811 15.1855 21.1372 15.1855C20.0933 15.1855 19.2427 14.2158 19.2427 13.0207C19.2427 11.8257 20.0933 10.856 21.1372 10.856C22.1811 10.856 23.0317 11.8257 23.0317 13.0207Z" fill="#959595"/>
</g>
<g style="mix-blend-mode:multiply">
<path d="M12.1211 10.0757C11.3073 9.54317 10.3399 9.2954 9.37025 9.37115C9.20635 9.39012 9.04096 9.35131 8.90261 9.26142C8.76427 9.17152 8.66164 9.03618 8.61244 8.87873C8.53098 8.55865 8.82463 8.21017 9.27173 8.17608C10.506 8.07997 11.7372 8.39569 12.7728 9.0738C13.1517 9.31812 13.237 9.76698 13.0115 10.0075C12.8936 10.1196 12.7407 10.1876 12.5784 10.2C12.4162 10.2125 12.2547 10.1685 12.1211 10.0757Z" fill="#959595"/>
</g>
<g style="mix-blend-mode:multiply">
<path d="M19.8886 10.0758C20.7026 9.54366 21.6698 9.29592 22.6395 9.37124C22.8034 9.39059 22.969 9.35193 23.1074 9.26198C23.2458 9.17203 23.3484 9.03647 23.3973 8.87882C23.4787 8.55875 23.1851 8.21026 22.738 8.17617C21.5043 8.07977 20.2736 8.39552 19.2388 9.07389C18.8599 9.31821 18.7727 9.76707 18.9982 10.0076C19.1161 10.1197 19.269 10.1877 19.4313 10.2001C19.5935 10.2125 19.755 10.1686 19.8886 10.0758Z" fill="#959595"/>
</g>
<g style="mix-blend-mode:multiply">
<path d="M11.0129 22.178C12.5532 21.3737 14.2652 20.9536 16.003 20.9536C17.7408 20.9536 19.4529 21.3737 20.9932 22.178C21.5104 22.4451 21.7131 23.0398 21.4687 23.4432C21.3421 23.6342 21.1481 23.7703 20.9254 23.8244C20.7027 23.8785 20.4677 23.8465 20.2676 23.7349C18.9519 23.0475 17.4894 22.6885 16.0049 22.6885C14.5204 22.6885 13.0579 23.0475 11.7423 23.7349C11.5415 23.8477 11.3054 23.8804 11.0815 23.8263C10.8576 23.7722 10.6625 23.6353 10.5354 23.4432C10.2911 23.0398 10.4957 22.4451 11.0129 22.178Z" fill="#959595"/>
</g>
</svg>
