<svg width="33" height="33" viewBox="0 0 33 33" fill="none" xmlns="http://www.w3.org/2000/svg">
<path d="M31.0049 16.0028C31.0075 24.2883 24.2929 31.0049 16.0074 31.0049C7.72169 31.0049 1.00259 24.2879 1 16.0021C0.997416 7.71663 7.71195 1 15.9975 1C24.2832 1 31.0023 7.71701 31.0049 16.0028Z" stroke="#959595" stroke-width="2"/>
<g style="mix-blend-mode:multiply">
<path d="M10.8718 15.2543C11.9202 15.2543 12.7701 14.2851 12.7701 13.0896C12.7701 11.894 11.9202 10.9248 10.8718 10.9248C9.82341 10.9248 8.97351 11.894 8.97351 13.0896C8.97351 14.2851 9.82341 15.2543 10.8718 15.2543Z" fill="#959595"/>
<path d="M23.0309 13.0896C23.0309 14.2846 22.1802 15.2543 21.1363 15.2543C20.0925 15.2543 19.2418 14.2846 19.2418 13.0896C19.2418 11.8945 20.0925 10.9248 21.1363 10.9248C22.1802 10.9248 23.0309 11.8945 23.0309 13.0896Z" fill="#959595"/>
</g>
<g style="mix-blend-mode:multiply">
<path d="M11.9289 9.6369C10.9769 9.43807 9.98589 9.55925 9.10989 9.98159C8.964 10.0562 8.79678 10.0781 8.63657 10.0436C8.47636 10.0091 8.33302 9.92028 8.23083 9.7922C8.04137 9.52326 8.18536 9.09144 8.58889 8.89637C9.70296 8.35776 10.9643 8.20389 12.1752 8.45887C12.6148 8.54978 12.861 8.93425 12.7436 9.24106C12.6754 9.39174 12.5566 9.51381 12.4078 9.5861C12.259 9.6584 12.0896 9.67637 11.9289 9.6369Z" fill="#959595"/>
</g>
<g style="mix-blend-mode:multiply">
<path d="M20.0754 9.6369C21.0274 9.43807 22.0185 9.55925 22.8945 9.98159C23.0403 10.0566 23.2076 10.0787 23.3679 10.0442C23.5282 10.0096 23.6716 9.92058 23.7735 9.7922C23.963 9.52326 23.819 9.09144 23.4155 8.89637C22.3014 8.35776 21.0401 8.20389 19.8291 8.45887C19.3915 8.54978 19.1433 8.93425 19.2608 9.24106C19.3284 9.39223 19.4471 9.51475 19.5961 9.58713C19.745 9.65952 19.9147 9.67714 20.0754 9.6369Z" fill="#959595"/>
</g>
<g style="mix-blend-mode:multiply">
<path d="M20.5509 23.6596H11.4572C11.3367 23.6652 11.2163 23.6462 11.1033 23.604C10.9904 23.5617 10.8871 23.4969 10.7999 23.4136C10.7126 23.3303 10.6432 23.2302 10.5957 23.1193C10.5483 23.0085 10.5238 22.8891 10.5238 22.7685C10.5238 22.6479 10.5483 22.5286 10.5957 22.4177C10.6432 22.3068 10.7126 22.2067 10.7999 22.1234C10.8871 22.0401 10.9904 21.9753 11.1033 21.9331C11.2163 21.8908 11.3367 21.8719 11.4572 21.8774H20.5509C20.7802 21.888 20.9966 21.9865 21.1552 22.1524C21.3137 22.3184 21.4022 22.539 21.4022 22.7685C21.4022 22.998 21.3137 23.2186 21.1552 23.3846C20.9966 23.5505 20.7802 23.649 20.5509 23.6596Z" fill="#959595"/>
</g>
</svg>
