<svg width="33" height="33" viewBox="0 0 33 33" fill="none" xmlns="http://www.w3.org/2000/svg">
<path d="M31.0049 16.0028C31.0075 24.2883 24.2929 31.0049 16.0074 31.0049C7.72169 31.0049 1.00259 24.2879 1 16.0021C0.997416 7.71663 7.71195 1 15.9974 1C24.2832 1 31.0023 7.71701 31.0049 16.0028Z" stroke="#959595" stroke-width="2"/>
<g style="mix-blend-mode:multiply">
<path d="M20.9915 23.1298C19.4512 23.9342 17.7391 24.3542 16.0013 24.3542C14.2635 24.3542 12.5515 23.9342 11.0111 23.1298C10.4939 22.8628 10.2893 22.2681 10.5337 21.8628C10.6611 21.671 10.8563 21.5345 11.0802 21.4807C11.304 21.427 11.54 21.4599 11.7405 21.573C13.0562 22.2603 14.5187 22.6193 16.0032 22.6193C17.4877 22.6193 18.9502 22.2603 20.2659 21.573C20.4661 21.4596 20.7018 21.4264 20.9255 21.4802C21.1492 21.534 21.3441 21.6708 21.4708 21.8628C21.7114 22.2681 21.5087 22.8628 20.9915 23.1298Z" fill="#959595"/>
</g>
<g style="mix-blend-mode:multiply">
<path d="M12.7693 12.6281C12.7693 13.8232 11.9186 14.7929 10.8747 14.7929C9.83087 14.7929 8.98022 13.8232 8.98022 12.6281C8.98022 11.4331 9.83087 10.4634 10.8747 10.4634C11.9186 10.4634 12.7693 11.4331 12.7693 12.6281Z" fill="#959595"/>
<path d="M23.03 12.6281C23.03 13.8232 22.1794 14.7929 21.1355 14.7929C20.0916 14.7929 19.241 13.8232 19.241 12.6281C19.241 11.4331 20.0916 10.4634 21.1355 10.4634C22.1794 10.4634 23.03 11.4331 23.03 12.6281Z" fill="#959595"/>
</g>
<g style="mix-blend-mode:multiply">
<path d="M11.157 8.84968C10.1846 8.85514 9.2414 9.18211 8.47437 9.7796C8.34759 9.88379 8.18855 9.94075 8.02442 9.94075C7.8603 9.94075 7.70126 9.88379 7.57447 9.7796C7.33008 9.55801 7.38502 9.10347 7.7355 8.83263C8.71091 8.07361 9.90959 7.65753 11.1456 7.64893C11.5946 7.64893 11.9167 7.969 11.8618 8.29476C11.8261 8.45417 11.7365 8.59641 11.6081 8.69749C11.4797 8.79857 11.3204 8.85232 11.157 8.84968Z" fill="#959595"/>
</g>
<g style="mix-blend-mode:multiply">
<path d="M20.8457 8.84968C21.8179 8.85585 22.761 9.18274 23.5283 9.7796C23.6547 9.88399 23.8134 9.94109 23.9773 9.94109C24.1412 9.94109 24.3 9.88399 24.4263 9.7796C24.6707 9.55801 24.6158 9.10347 24.2653 8.83263C23.2899 8.07361 22.0912 7.65753 20.8552 7.64893C20.408 7.64893 20.086 7.969 20.139 8.29476C20.1748 8.4545 20.2647 8.59698 20.3934 8.6981C20.5222 8.79921 20.682 8.85276 20.8457 8.84968Z" fill="#959595"/>
</g>
</svg>
