<svg width="32" height="32" viewBox="0 0 32 32" fill="none" xmlns="http://www.w3.org/2000/svg">
<rect width="32" height="32" rx="4" fill="#252A38"/>
<path d="M22 9.414L23.707 7.707L22.293 6.293L20.73 7.855C19.483 6.708 17.824 6 16 6C14.176 6 12.517 6.708 11.27 7.855L9.707 6.293L8.293 7.707L10 9.414C9.34616 10.4959 9.00037 11.7359 9 13H7V15H9V17H7V19H9C9 22.86 12.141 26 16 26C19.859 26 23 22.86 23 19H25V17H23V15H25V13H23C22.9996 11.7359 22.6538 10.4959 22 9.414ZM19 19H13V17H19V19ZM19 15H13V13H19V15Z" fill="white"/>
</svg>
