<svg width="248" height="80" viewBox="0 0 248 80" fill="none" xmlns="http://www.w3.org/2000/svg">
<path d="M27.744 25.24C26.88 23.576 25.68 22.328 24.144 21.496C22.608 20.632 20.832 20.2 18.816 20.2C16.608 20.2 14.64 20.696 12.912 21.688C11.184 22.68 9.824 24.088 8.832 25.912C7.872 27.736 7.392 29.848 7.392 32.248C7.392 34.648 7.872 36.776 8.832 38.632C9.824 40.456 11.184 41.864 12.912 42.856C14.64 43.848 16.608 44.344 18.816 44.344C21.792 44.344 24.208 43.512 26.064 41.848C27.92 40.184 29.056 37.928 29.472 35.08H16.944V30.712H35.328V34.984C34.976 37.576 34.048 39.96 32.544 42.136C31.072 44.312 29.136 46.056 26.736 47.368C24.368 48.648 21.728 49.288 18.816 49.288C15.68 49.288 12.816 48.568 10.224 47.128C7.632 45.656 5.568 43.624 4.032 41.032C2.528 38.44 1.776 35.512 1.776 32.248C1.776 28.984 2.528 26.056 4.032 23.464C5.568 20.872 7.632 18.856 10.224 17.416C12.848 15.944 15.712 15.208 18.816 15.208C22.368 15.208 25.52 16.088 28.272 17.848C31.056 19.576 33.072 22.04 34.32 25.24H27.744ZM72.933 49H67.461L50.997 24.088V49H45.525V15.592H50.997L67.461 40.456V15.592H72.933V49ZM100.135 49.336C97.0307 49.336 94.1667 48.616 91.5427 47.176C88.9507 45.704 86.8867 43.672 85.3507 41.08C83.8467 38.456 83.0947 35.512 83.0947 32.248C83.0947 28.984 83.8467 26.056 85.3507 23.464C86.8867 20.872 88.9507 18.856 91.5427 17.416C94.1667 15.944 97.0307 15.208 100.135 15.208C103.271 15.208 106.135 15.944 108.727 17.416C111.351 18.856 113.415 20.872 114.919 23.464C116.423 26.056 117.175 28.984 117.175 32.248C117.175 35.512 116.423 38.456 114.919 41.08C113.415 43.672 111.351 45.704 108.727 47.176C106.135 48.616 103.271 49.336 100.135 49.336ZM100.135 44.584C102.343 44.584 104.311 44.088 106.039 43.096C107.767 42.072 109.111 40.632 110.071 38.776C111.063 36.888 111.559 34.712 111.559 32.248C111.559 29.784 111.063 27.624 110.071 25.768C109.111 23.912 107.767 22.488 106.039 21.496C104.311 20.504 102.343 20.008 100.135 20.008C97.9267 20.008 95.9587 20.504 94.2307 21.496C92.5027 22.488 91.1427 23.912 90.1507 25.768C89.1907 27.624 88.7107 29.784 88.7107 32.248C88.7107 34.712 89.1907 36.888 90.1507 38.776C91.1427 40.632 92.5027 42.072 94.2307 43.096C95.9587 44.088 97.9267 44.584 100.135 44.584ZM162.495 15.64V49H157.023V26.152L146.847 49H143.055L132.831 26.152V49H127.359V15.64H133.263L144.975 41.8L156.639 15.64H162.495ZM189.703 49.336C186.599 49.336 183.735 48.616 181.111 47.176C178.519 45.704 176.455 43.672 174.919 41.08C173.415 38.456 172.663 35.512 172.663 32.248C172.663 28.984 173.415 26.056 174.919 23.464C176.455 20.872 178.519 18.856 181.111 17.416C183.735 15.944 186.599 15.208 189.703 15.208C192.839 15.208 195.703 15.944 198.295 17.416C200.919 18.856 202.983 20.872 204.487 23.464C205.991 26.056 206.743 28.984 206.743 32.248C206.743 35.512 205.991 38.456 204.487 41.08C202.983 43.672 200.919 45.704 198.295 47.176C195.703 48.616 192.839 49.336 189.703 49.336ZM189.703 44.584C191.911 44.584 193.879 44.088 195.607 43.096C197.335 42.072 198.679 40.632 199.639 38.776C200.631 36.888 201.127 34.712 201.127 32.248C201.127 29.784 200.631 27.624 199.639 25.768C198.679 23.912 197.335 22.488 195.607 21.496C193.879 20.504 191.911 20.008 189.703 20.008C187.495 20.008 185.527 20.504 183.799 21.496C182.071 22.488 180.711 23.912 179.719 25.768C178.759 27.624 178.279 29.784 178.279 32.248C178.279 34.712 178.759 36.888 179.719 38.776C180.711 40.632 182.071 42.072 183.799 43.096C185.527 44.088 187.495 44.584 189.703 44.584ZM244.336 49H238.864L222.4 24.088V49H216.928V15.592H222.4L238.864 40.456V15.592H244.336V49Z" fill="black"/>
<path d="M44.727 68.1515L41.0938 79.8822H39.2592L36.3455 70.4404L33.3239 79.8822L31.5073 79.899L28 68.1515H29.7446L32.4785 78.0982L35.5002 68.1515H37.3347L40.2125 78.0645L42.9644 68.1515H44.727Z" fill="#808080"/>
<path d="M71.9144 77.2735H66.4466L65.4394 79.8822H63.7127L68.2452 68.2188H70.1337L74.6482 79.8822H72.9216L71.9144 77.2735ZM71.4467 76.0281L69.1805 70.1038L66.9143 76.0281H71.4467Z" fill="#808080"/>
<path d="M102.326 68.1515V69.3969H98.9083V79.8822H97.2715V69.3969H93.8362V68.1515H102.326Z" fill="#808080"/>
<path d="M121.715 74.0084C121.715 72.864 121.991 71.8373 122.542 70.9285C123.094 70.0084 123.843 69.2903 124.79 68.7742C125.75 68.2581 126.811 68 127.974 68C129.341 68 130.534 68.3086 131.553 68.9257C132.572 69.5428 133.316 70.418 133.783 71.5512H131.823C131.475 70.8443 130.972 70.3001 130.312 69.9187C129.665 69.5372 128.885 69.3464 127.974 69.3464C127.099 69.3464 126.313 69.5372 125.618 69.9187C124.922 70.3001 124.377 70.8443 123.981 71.5512C123.585 72.2468 123.387 73.0659 123.387 74.0084C123.387 74.9397 123.585 75.7588 123.981 76.4656C124.377 77.1613 124.922 77.6999 125.618 78.0813C126.313 78.4628 127.099 78.6536 127.974 78.6536C128.885 78.6536 129.665 78.4684 130.312 78.0982C130.972 77.7167 131.475 77.1725 131.823 76.4656H133.783C133.316 77.5877 132.572 78.4572 131.553 79.0743C130.534 79.6802 129.341 79.9832 127.974 79.9832C126.811 79.9832 125.75 79.7307 124.79 79.2258C123.843 78.7097 123.094 77.9972 122.542 77.0884C121.991 76.1795 121.715 75.1529 121.715 74.0084Z" fill="#808080"/>
<path d="M163.864 68.1515V79.8822H162.228V74.5638H155.843V79.8822H154.206V68.1515H155.843V73.3015H162.228V68.1515H163.864Z" fill="#808080"/>
<path d="M186.282 69.3969V73.3184H190.85V74.5806H186.282V78.6199H191.39V79.8822H184.645V68.1346H191.39V69.3969H186.282Z" fill="#808080"/>
<path d="M215.827 80C215 80 214.256 79.8654 213.597 79.5961C212.949 79.3156 212.44 78.9341 212.068 78.4516C211.696 77.9579 211.505 77.3913 211.493 76.7518H213.237C213.297 77.3015 213.537 77.7672 213.957 78.1487C214.388 78.5189 215.012 78.7041 215.827 78.7041C216.607 78.7041 217.218 78.5245 217.662 78.1655C218.117 77.7952 218.345 77.324 218.345 76.7518C218.345 76.3029 218.213 75.9383 217.95 75.6578C217.686 75.3773 217.356 75.1641 216.96 75.0182C216.565 74.8724 216.031 74.7153 215.36 74.547C214.532 74.345 213.867 74.1431 213.363 73.9411C212.872 73.7391 212.446 73.425 212.086 72.9986C211.738 72.561 211.565 71.9776 211.565 71.2482C211.565 70.6087 211.738 70.0421 212.086 69.5484C212.434 69.0547 212.92 68.6732 213.543 68.4039C214.179 68.1346 214.904 68 215.719 68C216.894 68 217.854 68.2749 218.597 68.8247C219.352 69.3745 219.778 70.1038 219.874 71.0126H218.075C218.016 70.5638 217.764 70.1711 217.32 69.8345C216.876 69.4867 216.289 69.3128 215.557 69.3128C214.874 69.3128 214.316 69.4811 213.885 69.8177C213.453 70.1431 213.237 70.6031 213.237 71.1978C213.237 71.6241 213.363 71.9719 213.615 72.2412C213.879 72.5105 214.197 72.7181 214.568 72.864C214.952 72.9986 215.486 73.1557 216.169 73.3352C216.996 73.5484 217.662 73.7616 218.165 73.9748C218.669 74.1767 219.101 74.4965 219.46 74.9341C219.82 75.3604 220 75.9439 220 76.6844C220 77.2567 219.838 77.7952 219.514 78.3001C219.191 78.805 218.711 79.2146 218.075 79.5288C217.44 79.8429 216.691 80 215.827 80Z" fill="#808080"/>
</svg>
