<svg width="960" height="1012" viewBox="0 0 960 1012" fill="none" xmlns="http://www.w3.org/2000/svg">
<mask id="mask0_57_135" style="mask-type:alpha" maskUnits="userSpaceOnUse" x="0" y="0" width="960" height="1012">
<rect width="960" height="1012" fill="#D9D9D9"/>
</mask>
<g mask="url(#mask0_57_135)">
<path d="M1701.4 648.143V648.096C1590.48 615.754 1475.61 595.1 1358.32 586.791C1319.18 583.987 1279.75 582.612 1240.08 582.612C1200.41 582.612 1160.98 583.987 1121.84 586.791C1004.45 595.1 889.533 615.76 778.608 648.197C698.802 671.464 621.077 700.813 546.02 736.006C553.052 819.399 566.35 901.46 585.641 981.665C613.008 1095.26 652.434 1205.15 703.266 1309.86C737.611 1380.58 777.232 1448.96 821.839 1514.4C879.513 1599.12 945.636 1678.99 1019.7 1753.03C1029 1762.34 1038.46 1771.55 1047.96 1780.67C1108.48 1838.37 1172.67 1890.89 1240.03 1938.09C1307.34 1890.89 1371.53 1838.32 1432.05 1780.62C1441.55 1771.55 1451 1762.33 1460.31 1753.03C1534.33 1679.04 1600.41 1599.21 1658.03 1514.59C1702.68 1449.15 1742.26 1380.81 1776.6 1310.1C1827.53 1205.29 1867 1095.31 1894.37 981.617C1913.7 901.359 1926.96 819.299 1933.99 735.911C1858.89 700.724 1781.17 671.423 1701.4 648.149V648.143ZM1547.25 1237.35L1547.2 1237.44C1527.72 1275.24 1506.35 1312.14 1483.26 1348.14L1483.07 1348.47C1428.91 1433.05 1365.11 1512.4 1292.38 1585.11C1275.28 1602.21 1257.85 1618.78 1240.03 1634.88C1222.21 1618.83 1204.74 1602.2 1187.63 1585.11C1112.95 1510.46 1047.77 1428.87 992.621 1341.77L992.573 1341.73L992.288 1341.25C972.576 1310.1 954.191 1278.23 937.087 1245.7L936.897 1245.28C877.753 1132.82 834.384 1012.67 807.966 887.686C945.731 843.141 1091.15 820.063 1240.08 820.063C1389.01 820.063 1534.32 843.142 1672.04 887.639C1646.24 1009.69 1604.3 1127.13 1547.24 1237.35H1547.25Z" stroke="url(#paint0_linear_57_135)" stroke-width="7" stroke-miterlimit="10"/>
<path d="M852.147 143.194C761.841 159.913 672.816 182.564 585.309 211.148C528.774 229.527 472.955 250.424 417.807 273.74C385.887 287.229 354.388 301.47 323.316 316.435C235.097 358.888 150.3 407.279 69.2606 461.324C66.4564 505.868 65.0809 550.698 65.0809 595.716C65.0809 648.855 67.0315 701.714 70.9207 754.189C77.8572 848.79 91.1611 942.294 110.637 1034.38C129.591 1124.13 154.485 1212.56 185.267 1299.42C199.33 1339.21 214.626 1378.63 231.155 1417.71C249.824 1461.78 269.869 1505.09 291.39 1547.59L497.47 1428.63C448.304 1329.71 407.592 1225.85 376.377 1117.96C352.437 1035.47 334.053 950.61 321.697 863.796C309.111 776.319 302.601 686.898 302.601 595.959C379.846 551.272 460.558 511.949 544.259 478.517C624.024 446.602 706.539 420.009 791.289 399.213C898.177 372.952 1008.63 355.853 1121.83 348.824V111C1030.86 115.937 940.881 126.67 852.141 143.199L852.147 143.194Z" stroke="url(#paint1_linear_57_135)" stroke-width="7" stroke-miterlimit="10"/>
</g>
<defs>
<linearGradient id="paint0_linear_57_135" x1="543.838" y1="1260.58" x2="1936.18" y2="1260.58" gradientUnits="userSpaceOnUse">
<stop stop-color="#2AC5C3" stop-opacity="0.2"/>
<stop offset="0.51" stop-color="#54E4F3"/>
<stop offset="0.56" stop-color="#50DFEC" stop-opacity="0.93"/>
<stop offset="0.66" stop-color="#49D2DA" stop-opacity="0.76"/>
<stop offset="0.79" stop-color="#3CBDBE" stop-opacity="0.49"/>
<stop offset="0.96" stop-color="#2AA298" stop-opacity="0.11"/>
<stop offset="1" stop-color="#269A8D" stop-opacity="0"/>
</linearGradient>
<linearGradient id="paint1_linear_57_135" x1="63" y1="829.647" x2="1123.9" y2="829.647" gradientUnits="userSpaceOnUse">
<stop stop-color="#2AC5C3" stop-opacity="0.2"/>
<stop offset="0.51" stop-color="#54E4F3"/>
<stop offset="0.56" stop-color="#50DFEC" stop-opacity="0.93"/>
<stop offset="0.66" stop-color="#49D2DA" stop-opacity="0.76"/>
<stop offset="0.79" stop-color="#3CBDBE" stop-opacity="0.49"/>
<stop offset="0.96" stop-color="#2AA298" stop-opacity="0.11"/>
<stop offset="1" stop-color="#269A8D" stop-opacity="0"/>
</linearGradient>
</defs>
</svg>
