<svg width="64" height="64" viewBox="0 0 64 64" fill="none" xmlns="http://www.w3.org/2000/svg">
<circle cx="32" cy="32" r="32" fill="#F2F2F2"/>
<path d="M45.263 28.2387C45.1792 27.9918 45.025 27.7749 44.8193 27.6148C44.6136 27.4546 44.3655 27.3581 44.1057 27.3374L36.5044 26.7334L33.215 19.452C33.1103 19.2175 32.9399 19.0183 32.7244 18.8785C32.509 18.7387 32.2576 18.6642 32.0008 18.6641C31.7439 18.6639 31.4925 18.7381 31.2769 18.8777C31.0613 19.0173 30.8907 19.2163 30.7857 19.4507L27.4964 26.7334L19.895 27.3374C19.6396 27.3576 19.3955 27.451 19.1918 27.6063C18.9881 27.7617 18.8334 27.9724 18.7464 28.2134C18.6593 28.4543 18.6435 28.7153 18.7008 28.965C18.7582 29.2146 18.8862 29.4425 19.0697 29.6214L24.687 35.0974L22.7004 43.7C22.64 43.9604 22.6594 44.2329 22.7559 44.4822C22.8523 44.7315 23.0215 44.946 23.2414 45.0979C23.4613 45.2499 23.7219 45.3322 23.9891 45.3342C24.2564 45.3363 24.5182 45.2579 24.7404 45.1094L32.0004 40.2694L39.2604 45.1094C39.4875 45.2601 39.7553 45.3378 40.0279 45.3318C40.3004 45.3258 40.5646 45.2365 40.7849 45.0759C41.0052 44.9153 41.171 44.6911 41.2601 44.4334C41.3491 44.1758 41.3571 43.897 41.283 43.6347L38.8444 35.1014L44.8924 29.6587C45.2884 29.3014 45.4337 28.744 45.263 28.2387Z" fill="#0699F9"/>
</svg>
