<svg width="64" height="64" viewBox="0 0 64 64" fill="none" xmlns="http://www.w3.org/2000/svg">
<circle cx="32" cy="32" r="32" fill="#F2F2F2"/>
<path d="M28.667 31.9999C31.6083 31.9999 34.0003 29.6079 34.0003 26.6666C34.0003 23.7253 31.6083 21.3333 28.667 21.3333C25.7257 21.3333 23.3337 23.7253 23.3337 26.6666C23.3337 29.6079 25.7257 31.9999 28.667 31.9999ZM30.667 33.3333H26.667C22.255 33.3333 18.667 36.9213 18.667 41.3333V42.6666H38.667V41.3333C38.667 36.9213 35.079 33.3333 30.667 33.3333Z" fill="#A259FF"/>
<path d="M38.1384 30.7308C38.9505 29.3469 39.3012 27.7405 39.1398 26.1441C38.9011 23.7655 37.5731 21.6628 35.4024 20.2241L33.9291 22.4455C35.4211 23.4348 36.3291 24.8441 36.4864 26.4108C36.559 27.1389 36.4683 27.8741 36.2211 28.5628C35.9738 29.2515 35.5762 29.8764 35.0571 30.3921L33.4678 31.9815L35.6251 32.6148C41.2678 34.2681 41.3331 39.9428 41.3331 40.0001H43.9998C43.9998 37.6148 42.7251 32.9535 38.1384 30.7308Z" fill="#A259FF"/>
</svg>
