<svg width="2951" height="271" viewBox="0 0 2951 271" fill="none" xmlns="http://www.w3.org/2000/svg">
<path d="M58.3422 4.74365L132.468 190.81C139.337 208.042 154.367 218.25 172.93 218.25C191.493 218.25 206.523 208.042 213.393 190.81L287.518 4.74365H338.86L257.697 208.477C243.606 243.854 211.009 265.966 172.93 265.966C134.851 265.966 102.254 243.868 88.1634 208.477L6.99982 4.74365H58.3422Z" fill="url(#paint0_linear_57_86)"/>
<path d="M647.265 265.952L573.14 79.8853C566.27 62.6387 551.226 52.4451 532.677 52.4451C514.128 52.4451 499.085 62.6387 492.215 79.8853L418.089 265.966H366.747L447.91 62.2321C462.001 26.8557 494.598 4.74365 532.677 4.74365C570.756 4.74365 603.354 26.8417 617.444 62.2321L698.607 265.966H647.265V265.952Z" fill="url(#paint1_linear_57_86)"/>
<path d="M836.497 4.74365H851.05C861.93 4.74365 872.655 7.44982 882.217 12.6238C895.438 19.7748 903.752 29.646 910.819 42.7141C912.136 45.1538 913.37 47.6357 914.562 50.1455C915.557 52.2347 916.511 54.338 917.45 56.4412C918.179 58.0958 918.922 59.7503 919.665 61.4048L977.527 189.674C978.298 191.385 979.055 193.11 979.826 194.834C980.612 196.601 981.411 198.354 982.224 200.092C983.065 201.859 983.934 203.612 984.86 205.322C987.299 209.851 989.514 213.595 994.169 216.119C996.777 217.521 999.679 218.25 1002.65 218.25H1008.01C1014.88 218.25 1020.49 212.642 1020.49 205.771V4.74365H1068.18V214.969C1068.18 243.11 1045.34 265.952 1017.19 265.952H1002.64C991.758 265.952 981.032 263.245 971.47 258.071C958.249 250.92 949.935 241.049 942.883 227.981C941.565 225.541 940.317 223.06 939.125 220.55C938.13 218.461 937.177 216.357 936.251 214.254C935.508 212.599 934.779 210.945 934.036 209.29L876.174 81.021C875.403 79.3104 874.646 77.5857 873.875 75.8611C873.09 74.0944 872.291 72.3417 871.478 70.603C870.636 68.8363 869.767 67.0976 868.842 65.373C866.402 60.858 864.187 57.1002 859.532 54.5904C856.924 53.1742 854.022 52.4451 851.064 52.4451H845.708C838.838 52.4451 833.23 58.0537 833.23 64.9383V265.966H785.533V55.7261C785.533 27.5848 808.372 4.74365 836.511 4.74365H836.497Z" fill="url(#paint2_linear_57_86)"/>
<path d="M1439.8 122.973V214.969C1439.8 243.11 1416.97 265.951 1388.83 265.951H1252.83C1199.09 265.951 1155.09 221.965 1155.09 168.207V102.473C1155.09 48.7147 1199.08 4.729 1252.83 4.729H1423.65V52.4304H1252.83C1225.41 52.4304 1202.79 75.0472 1202.79 102.473V168.207C1202.79 195.633 1225.41 218.25 1252.83 218.25H1381.98C1387.56 218.25 1392.11 213.693 1392.11 208.126V170.674H1291.81V122.973H1439.8Z" fill="url(#paint3_linear_57_86)"/>
<path d="M1574.55 4.74365V168.207C1574.55 195.732 1597.07 218.25 1624.59 218.25H1719.85C1747.37 218.25 1769.88 195.746 1769.88 168.207V4.74365H1817.58V168.207C1817.58 221.966 1773.6 265.952 1719.85 265.952H1624.59C1570.84 265.952 1526.86 221.966 1526.86 168.207V4.74365H1574.55Z" fill="url(#paint4_linear_57_86)"/>
<path d="M2185.22 265.952L2111.1 79.8853C2104.23 62.6387 2089.18 52.4451 2070.63 52.4451C2052.09 52.4451 2037.04 62.6387 2030.17 79.8853L1956.05 265.966H1904.7L1985.87 62.2321C1999.96 26.8557 2032.56 4.74365 2070.63 4.74365C2108.71 4.74365 2141.31 26.8417 2155.4 62.2321L2236.57 265.966H2185.22V265.952Z" fill="url(#paint5_linear_57_86)"/>
<path d="M2374.96 115.935C2383.22 112.99 2391.94 111.49 2400.7 111.49H2512.76C2528.9 111.49 2542.14 98.3797 2542.29 82.2409C2542.29 82.1568 2542.29 82.0586 2542.29 81.9745C2542.29 81.8904 2542.29 81.7922 2542.29 81.6941C2542.14 65.5552 2528.9 52.4451 2512.76 52.4451H2323.48V4.74365H2512.76C2521.53 4.74365 2530.25 6.22994 2538.51 9.17448C2569.21 20.1113 2589.99 49.3323 2589.99 81.9745C2589.99 95.295 2586.51 108.349 2579.94 119.931C2572.28 133.406 2560.8 144.314 2546.95 151.185L2592.67 265.966H2541.32L2498.8 159.219H2400.71C2384.58 159.219 2371.34 172.33 2371.19 188.468C2371.19 188.567 2371.19 188.651 2371.19 188.749V265.98H2323.49V188.749C2323.49 156.121 2344.28 126.9 2374.97 115.963L2374.96 115.935Z" fill="url(#paint6_linear_57_86)"/>
<path d="M2848.33 218.25C2875.85 218.25 2898.36 195.745 2898.36 168.207V102.473C2898.36 74.949 2875.85 52.4304 2848.33 52.4304H2679.55V4.729H2848.33C2902.07 4.729 2946.06 48.7147 2946.06 102.473V168.207C2946.06 221.965 2902.08 265.951 2848.33 265.951H2679.55V218.25H2848.33Z" fill="url(#paint7_linear_57_86)"/>
<path d="M58.3422 4.74365L132.468 190.81C139.337 208.042 154.367 218.25 172.93 218.25C191.493 218.25 206.523 208.042 213.393 190.81L287.518 4.74365H338.86L257.697 208.477C243.606 243.854 211.009 265.966 172.93 265.966C134.851 265.966 102.254 243.868 88.1634 208.477L6.99982 4.74365H58.3422Z" stroke="url(#paint8_linear_57_86)" stroke-width="8.16406" stroke-miterlimit="10"/>
<path d="M647.265 265.952L573.14 79.8853C566.27 62.6387 551.226 52.4451 532.677 52.4451C514.128 52.4451 499.085 62.6387 492.215 79.8853L418.089 265.966H366.747L447.91 62.2321C462.001 26.8557 494.598 4.74365 532.677 4.74365C570.756 4.74365 603.354 26.8417 617.444 62.2321L698.607 265.966H647.265V265.952Z" stroke="url(#paint9_linear_57_86)" stroke-width="8.16406" stroke-miterlimit="10"/>
<path d="M836.497 4.74365H851.05C861.93 4.74365 872.655 7.44982 882.217 12.6238C895.438 19.7748 903.752 29.646 910.819 42.7141C912.136 45.1538 913.37 47.6357 914.562 50.1455C915.557 52.2347 916.511 54.338 917.45 56.4412C918.179 58.0958 918.922 59.7503 919.665 61.4048L977.527 189.674C978.298 191.385 979.055 193.11 979.826 194.834C980.612 196.601 981.411 198.354 982.224 200.092C983.065 201.859 983.934 203.612 984.86 205.322C987.299 209.851 989.514 213.595 994.169 216.119C996.777 217.521 999.679 218.25 1002.65 218.25H1008.01C1014.88 218.25 1020.49 212.642 1020.49 205.771V4.74365H1068.18V214.969C1068.18 243.11 1045.34 265.952 1017.19 265.952H1002.64C991.758 265.952 981.032 263.245 971.47 258.071C958.249 250.92 949.935 241.049 942.883 227.981C941.565 225.541 940.317 223.06 939.125 220.55C938.13 218.461 937.177 216.357 936.251 214.254C935.508 212.599 934.779 210.945 934.036 209.29L876.174 81.021C875.403 79.3104 874.646 77.5857 873.875 75.8611C873.09 74.0944 872.291 72.3417 871.478 70.603C870.636 68.8363 869.767 67.0976 868.842 65.373C866.402 60.858 864.187 57.1002 859.532 54.5904C856.924 53.1742 854.022 52.4451 851.064 52.4451H845.708C838.838 52.4451 833.23 58.0537 833.23 64.9383V265.966H785.533V55.7261C785.533 27.5848 808.372 4.74365 836.511 4.74365H836.497Z" stroke="url(#paint10_linear_57_86)" stroke-width="8.16406" stroke-miterlimit="10"/>
<path d="M1439.8 122.973V214.969C1439.8 243.11 1416.97 265.951 1388.83 265.951H1252.83C1199.09 265.951 1155.09 221.965 1155.09 168.207V102.473C1155.09 48.7147 1199.08 4.729 1252.83 4.729H1423.65V52.4304H1252.83C1225.41 52.4304 1202.79 75.0472 1202.79 102.473V168.207C1202.79 195.633 1225.41 218.25 1252.83 218.25H1381.98C1387.56 218.25 1392.11 213.693 1392.11 208.126V170.674H1291.81V122.973H1439.8Z" stroke="url(#paint11_linear_57_86)" stroke-width="8.16406" stroke-miterlimit="10"/>
<path d="M1574.55 4.74365V168.207C1574.55 195.732 1597.07 218.25 1624.59 218.25H1719.85C1747.37 218.25 1769.88 195.746 1769.88 168.207V4.74365H1817.58V168.207C1817.58 221.966 1773.6 265.952 1719.85 265.952H1624.59C1570.84 265.952 1526.86 221.966 1526.86 168.207V4.74365H1574.55Z" stroke="url(#paint12_linear_57_86)" stroke-width="8.16406" stroke-miterlimit="10"/>
<path d="M2185.22 265.952L2111.1 79.8853C2104.23 62.6387 2089.18 52.4451 2070.63 52.4451C2052.09 52.4451 2037.04 62.6387 2030.17 79.8853L1956.05 265.966H1904.7L1985.87 62.2321C1999.96 26.8557 2032.56 4.74365 2070.63 4.74365C2108.71 4.74365 2141.31 26.8417 2155.4 62.2321L2236.57 265.966H2185.22V265.952Z" stroke="url(#paint13_linear_57_86)" stroke-width="8.16406" stroke-miterlimit="10"/>
<path d="M2374.96 115.935C2383.22 112.99 2391.94 111.49 2400.7 111.49H2512.76C2528.9 111.49 2542.14 98.3797 2542.29 82.2409C2542.29 82.1568 2542.29 82.0586 2542.29 81.9745C2542.29 81.8904 2542.29 81.7922 2542.29 81.6941C2542.14 65.5552 2528.9 52.4451 2512.76 52.4451H2323.48V4.74365H2512.76C2521.53 4.74365 2530.25 6.22994 2538.51 9.17448C2569.21 20.1113 2589.99 49.3323 2589.99 81.9745C2589.99 95.295 2586.51 108.349 2579.94 119.931C2572.28 133.406 2560.8 144.314 2546.95 151.185L2592.67 265.966H2541.32L2498.8 159.219H2400.71C2384.58 159.219 2371.34 172.33 2371.19 188.468C2371.19 188.567 2371.19 188.651 2371.19 188.749V265.98H2323.49V188.749C2323.49 156.121 2344.28 126.9 2374.97 115.963L2374.96 115.935Z" stroke="url(#paint14_linear_57_86)" stroke-width="8.16406" stroke-miterlimit="10"/>
<path d="M2848.33 218.25C2875.85 218.25 2898.36 195.745 2898.36 168.207V102.473C2898.36 74.949 2875.85 52.4304 2848.33 52.4304H2679.55V4.729H2848.33C2902.07 4.729 2946.06 48.7147 2946.06 102.473V168.207C2946.06 221.965 2902.08 265.951 2848.33 265.951H2679.55V218.25H2848.33Z" stroke="url(#paint15_linear_57_86)" stroke-width="8.16406" stroke-miterlimit="10"/>
<defs>
<linearGradient id="paint0_linear_57_86" x1="117.354" y1="-58.9704" x2="278.216" y2="219.626" gradientUnits="userSpaceOnUse">
<stop stop-color="#41A9BD"/>
<stop offset="0.3" stop-color="#77DCD3"/>
<stop offset="0.5" stop-color="#96F9E0"/>
<stop offset="0.58" stop-color="#92F4DC"/>
<stop offset="0.67" stop-color="#86E6D3"/>
<stop offset="0.77" stop-color="#73CFC3"/>
<stop offset="0.88" stop-color="#58AEAE"/>
<stop offset="0.98" stop-color="#368592"/>
<stop offset="1" stop-color="#307E8D"/>
</linearGradient>
<linearGradient id="paint1_linear_57_86" x1="427.427" y1="51.0569" x2="588.29" y2="329.653" gradientUnits="userSpaceOnUse">
<stop stop-color="#41A9BD"/>
<stop offset="0.3" stop-color="#77DCD3"/>
<stop offset="0.5" stop-color="#96F9E0"/>
<stop offset="0.58" stop-color="#92F4DC"/>
<stop offset="0.67" stop-color="#86E6D3"/>
<stop offset="0.77" stop-color="#73CFC3"/>
<stop offset="0.88" stop-color="#58AEAE"/>
<stop offset="0.98" stop-color="#368592"/>
<stop offset="1" stop-color="#307E8D"/>
</linearGradient>
<linearGradient id="paint2_linear_57_86" x1="844.292" y1="-7.65142" x2="1009.42" y2="278.334" gradientUnits="userSpaceOnUse">
<stop stop-color="#41A9BD"/>
<stop offset="0.3" stop-color="#77DCD3"/>
<stop offset="0.5" stop-color="#96F9E0"/>
<stop offset="0.58" stop-color="#92F4DC"/>
<stop offset="0.67" stop-color="#86E6D3"/>
<stop offset="0.77" stop-color="#73CFC3"/>
<stop offset="0.88" stop-color="#58AEAE"/>
<stop offset="0.98" stop-color="#368592"/>
<stop offset="1" stop-color="#307E8D"/>
</linearGradient>
<linearGradient id="paint3_linear_57_86" x1="1232.71" y1="1.33578" x2="1389.75" y2="273.314" gradientUnits="userSpaceOnUse">
<stop stop-color="#41A9BD"/>
<stop offset="0.3" stop-color="#77DCD3"/>
<stop offset="0.5" stop-color="#96F9E0"/>
<stop offset="0.58" stop-color="#92F4DC"/>
<stop offset="0.67" stop-color="#86E6D3"/>
<stop offset="0.77" stop-color="#73CFC3"/>
<stop offset="0.88" stop-color="#58AEAE"/>
<stop offset="0.98" stop-color="#368592"/>
<stop offset="1" stop-color="#307E8D"/>
</linearGradient>
<linearGradient id="paint4_linear_57_86" x1="1594.84" y1="-34.5168" x2="1762.73" y2="256.221" gradientUnits="userSpaceOnUse">
<stop stop-color="#41A9BD"/>
<stop offset="0.3" stop-color="#77DCD3"/>
<stop offset="0.5" stop-color="#96F9E0"/>
<stop offset="0.58" stop-color="#92F4DC"/>
<stop offset="0.67" stop-color="#86E6D3"/>
<stop offset="0.77" stop-color="#73CFC3"/>
<stop offset="0.88" stop-color="#58AEAE"/>
<stop offset="0.98" stop-color="#368592"/>
<stop offset="1" stop-color="#307E8D"/>
</linearGradient>
<linearGradient id="paint5_linear_57_86" x1="1965.38" y1="51.0569" x2="2126.25" y2="329.653" gradientUnits="userSpaceOnUse">
<stop stop-color="#41A9BD"/>
<stop offset="0.3" stop-color="#77DCD3"/>
<stop offset="0.5" stop-color="#96F9E0"/>
<stop offset="0.58" stop-color="#92F4DC"/>
<stop offset="0.67" stop-color="#86E6D3"/>
<stop offset="0.77" stop-color="#73CFC3"/>
<stop offset="0.88" stop-color="#58AEAE"/>
<stop offset="0.98" stop-color="#368592"/>
<stop offset="1" stop-color="#307E8D"/>
</linearGradient>
<linearGradient id="paint6_linear_57_86" x1="2354.6" y1="-13.218" x2="2535.01" y2="299.239" gradientUnits="userSpaceOnUse">
<stop stop-color="#41A9BD"/>
<stop offset="0.3" stop-color="#77DCD3"/>
<stop offset="0.5" stop-color="#96F9E0"/>
<stop offset="0.58" stop-color="#92F4DC"/>
<stop offset="0.67" stop-color="#86E6D3"/>
<stop offset="0.77" stop-color="#73CFC3"/>
<stop offset="0.88" stop-color="#58AEAE"/>
<stop offset="0.98" stop-color="#368592"/>
<stop offset="1" stop-color="#307E8D"/>
</linearGradient>
<linearGradient id="paint7_linear_57_86" x1="2707.42" y1="-11.3397" x2="2869.25" y2="268.911" gradientUnits="userSpaceOnUse">
<stop stop-color="#41A9BD"/>
<stop offset="0.3" stop-color="#77DCD3"/>
<stop offset="0.5" stop-color="#96F9E0"/>
<stop offset="0.58" stop-color="#92F4DC"/>
<stop offset="0.67" stop-color="#86E6D3"/>
<stop offset="0.77" stop-color="#73CFC3"/>
<stop offset="0.88" stop-color="#58AEAE"/>
<stop offset="0.98" stop-color="#368592"/>
<stop offset="1" stop-color="#307E8D"/>
</linearGradient>
<linearGradient id="paint8_linear_57_86" x1="116.05" y1="-63.4012" x2="280.558" y2="221.504" gradientUnits="userSpaceOnUse">
<stop stop-color="#C5AE77" stop-opacity="0.2"/>
<stop offset="0.51" stop-color="#F3E2B3"/>
<stop offset="0.56" stop-color="#EDDCAD" stop-opacity="0.93"/>
<stop offset="0.66" stop-color="#DDCC9F" stop-opacity="0.76"/>
<stop offset="0.79" stop-color="#C5B389" stop-opacity="0.49"/>
<stop offset="0.96" stop-color="#A3916A" stop-opacity="0.11"/>
<stop offset="1" stop-color="#9A8862" stop-opacity="0"/>
</linearGradient>
<linearGradient id="paint9_linear_57_86" x1="425.085" y1="49.178" x2="589.594" y2="334.098" gradientUnits="userSpaceOnUse">
<stop stop-color="#C5AE77" stop-opacity="0.2"/>
<stop offset="0.51" stop-color="#F3E2B3"/>
<stop offset="0.56" stop-color="#EDDCAD" stop-opacity="0.93"/>
<stop offset="0.66" stop-color="#DDCC9F" stop-opacity="0.76"/>
<stop offset="0.79" stop-color="#C5B389" stop-opacity="0.49"/>
<stop offset="0.96" stop-color="#A3916A" stop-opacity="0.11"/>
<stop offset="1" stop-color="#9A8862" stop-opacity="0"/>
</linearGradient>
<linearGradient id="paint10_linear_57_86" x1="842.89" y1="-10.0772" x2="1010.82" y2="280.759" gradientUnits="userSpaceOnUse">
<stop stop-color="#C5AE77" stop-opacity="0.2"/>
<stop offset="0.51" stop-color="#F3E2B3"/>
<stop offset="0.56" stop-color="#EDDCAD" stop-opacity="0.93"/>
<stop offset="0.66" stop-color="#DDCC9F" stop-opacity="0.76"/>
<stop offset="0.79" stop-color="#C5B389" stop-opacity="0.49"/>
<stop offset="0.96" stop-color="#A3916A" stop-opacity="0.11"/>
<stop offset="1" stop-color="#9A8862" stop-opacity="0"/>
</linearGradient>
<linearGradient id="paint11_linear_57_86" x1="1231.76" y1="-1.35636" x2="1391.6" y2="275.487" gradientUnits="userSpaceOnUse">
<stop stop-color="#C5AE77" stop-opacity="0.2"/>
<stop offset="0.51" stop-color="#F3E2B3"/>
<stop offset="0.56" stop-color="#EDDCAD" stop-opacity="0.93"/>
<stop offset="0.66" stop-color="#DDCC9F" stop-opacity="0.76"/>
<stop offset="0.79" stop-color="#C5B389" stop-opacity="0.49"/>
<stop offset="0.96" stop-color="#A3916A" stop-opacity="0.11"/>
<stop offset="1" stop-color="#9A8862" stop-opacity="0"/>
</linearGradient>
<linearGradient id="paint12_linear_57_86" x1="1593.38" y1="-38.0923" x2="1764.57" y2="258.395" gradientUnits="userSpaceOnUse">
<stop stop-color="#C5AE77" stop-opacity="0.2"/>
<stop offset="0.51" stop-color="#F3E2B3"/>
<stop offset="0.56" stop-color="#EDDCAD" stop-opacity="0.93"/>
<stop offset="0.66" stop-color="#DDCC9F" stop-opacity="0.76"/>
<stop offset="0.79" stop-color="#C5B389" stop-opacity="0.49"/>
<stop offset="0.96" stop-color="#A3916A" stop-opacity="0.11"/>
<stop offset="1" stop-color="#9A8862" stop-opacity="0"/>
</linearGradient>
<linearGradient id="paint13_linear_57_86" x1="1963.04" y1="49.178" x2="2127.55" y2="334.098" gradientUnits="userSpaceOnUse">
<stop stop-color="#C5AE77" stop-opacity="0.2"/>
<stop offset="0.51" stop-color="#F3E2B3"/>
<stop offset="0.56" stop-color="#EDDCAD" stop-opacity="0.93"/>
<stop offset="0.66" stop-color="#DDCC9F" stop-opacity="0.76"/>
<stop offset="0.79" stop-color="#C5B389" stop-opacity="0.49"/>
<stop offset="0.96" stop-color="#A3916A" stop-opacity="0.11"/>
<stop offset="1" stop-color="#9A8862" stop-opacity="0"/>
</linearGradient>
<linearGradient id="paint14_linear_57_86" x1="2352.23" y1="-16.2887" x2="2536.82" y2="303.389" gradientUnits="userSpaceOnUse">
<stop stop-color="#C5AE77" stop-opacity="0.2"/>
<stop offset="0.51" stop-color="#F3E2B3"/>
<stop offset="0.56" stop-color="#EDDCAD" stop-opacity="0.93"/>
<stop offset="0.66" stop-color="#DDCC9F" stop-opacity="0.76"/>
<stop offset="0.79" stop-color="#C5B389" stop-opacity="0.49"/>
<stop offset="0.96" stop-color="#A3916A" stop-opacity="0.11"/>
<stop offset="1" stop-color="#9A8862" stop-opacity="0"/>
</linearGradient>
<linearGradient id="paint15_linear_57_86" x1="2705.07" y1="-14.4104" x2="2870.21" y2="271.589" gradientUnits="userSpaceOnUse">
<stop stop-color="#C5AE77" stop-opacity="0.2"/>
<stop offset="0.51" stop-color="#F3E2B3"/>
<stop offset="0.56" stop-color="#EDDCAD" stop-opacity="0.93"/>
<stop offset="0.66" stop-color="#DDCC9F" stop-opacity="0.76"/>
<stop offset="0.79" stop-color="#C5B389" stop-opacity="0.49"/>
<stop offset="0.96" stop-color="#A3916A" stop-opacity="0.11"/>
<stop offset="1" stop-color="#9A8862" stop-opacity="0"/>
</linearGradient>
</defs>
</svg>
