<svg width="26" height="30" viewBox="0 0 26 30" fill="none" xmlns="http://www.w3.org/2000/svg">
<g clip-path="url(#clip0_5876_82448)">
<path fill-rule="evenodd" clip-rule="evenodd" d="M26 21.1876V8.81215C26 7.87382 25.5146 7.01132 24.7217 6.5399L14.2785 0.34994C13.49 -0.116972 12.5148 -0.116972 11.7219 0.34994L1.27833 6.5399C0.48976 7.00681 0 7.87382 0 8.81215V21.1876C0 22.1259 0.485365 22.9884 1.27833 23.4598L11.7219 29.6498C12.5104 30.1167 13.4856 30.1167 14.2785 29.6498L24.7221 23.4598C25.515 22.9884 26.0004 22.1259 26.0004 21.1876H26Z" fill="#252A38"/>
<path d="M5.92986 17.3865C5.3682 17.3865 4.84448 17.0991 4.52969 16.6219C3.92968 15.7127 3.62368 14.6604 3.61169 13.6048V13.4728C3.62727 12.0861 4.15099 10.7046 5.18164 9.64696C5.71095 9.1038 6.32335 8.69797 6.97729 8.42988C7.28369 8.30403 7.61686 8.53441 7.61686 8.87301V15.6553C7.61686 16.6113 6.86145 17.3865 5.92986 17.3865Z" fill="#A159ED"/>
<path d="M10.8981 17.3864H10.267C9.33537 17.3864 8.57996 16.6113 8.57996 15.6553V8.51963C8.57996 8.26588 8.7729 8.05312 9.01978 8.04205C10.1994 7.98835 11.3927 8.3327 12.393 9.07467C12.514 9.16445 12.5851 9.30874 12.5851 9.46206V15.6553C12.5851 16.6113 11.8297 17.3864 10.8981 17.3864Z" fill="#50A06D"/>
<path d="M16.1121 13.6159H15.4809C14.5494 13.6159 13.7939 12.8407 13.7939 11.8848V9.46206C13.7939 9.30874 13.8651 9.16445 13.9861 9.07467C14.9864 8.3327 16.1796 7.98835 17.3593 8.04205C17.6062 8.05312 17.7991 8.26588 17.7991 8.51963V11.8848C17.7991 12.8407 17.0437 13.6159 16.1121 13.6159Z" fill="#FFBE40"/>
<path d="M15.0599 14.8628H21.6533C21.9649 14.8628 22.193 15.1719 22.0999 15.4773C21.8498 16.298 21.4084 17.0703 20.7752 17.7208L15.2585 23.3808C14.1156 24.5532 12.2632 24.5532 11.1203 23.3808L7.28568 19.4462C6.99247 19.1453 7.20019 18.6309 7.61485 18.6309H15.9631C16.22 18.6309 16.4285 18.4169 16.4285 18.1533C16.4285 17.8897 16.22 17.6757 15.9631 17.6757H15.0599C14.3029 17.6757 13.6893 17.0461 13.6893 16.2693C13.6893 15.4924 14.3029 14.8628 15.0599 14.8628Z" fill="#1F95F5"/>
<path d="M20.697 13.6207C20.6127 13.6207 20.5292 13.6207 20.4469 13.6207C19.5161 13.6195 18.7623 12.8447 18.7623 11.8896V8.87374C18.7623 8.53514 19.0959 8.30476 19.4023 8.43061C20.0562 8.69911 20.6686 9.10453 21.1975 9.64728C21.6274 10.0884 21.9689 10.5991 22.2226 11.1452C22.7555 12.2946 21.9374 13.6216 20.697 13.6207Z" fill="#F76162"/>
</g>
<defs>
<clipPath id="clip0_5876_82448">
<rect width="26" height="30" fill="white"/>
</clipPath>
</defs>
</svg>
